<svg width="623" height="36" viewBox="0 0 623 36" fill="none" xmlns="http://www.w3.org/2000/svg">
<path d="M21.465 12L30.075 26.91M14.535 12H31.755M11.07 18L19.68 3.09M14.535 24L5.925 9.09M21.465 24H4.245M24.93 18L16.32 32.91M33 18C33 26.2843 26.2843 33 18 33C9.71573 33 3 26.2843 3 18C3 9.71573 9.71573 3 18 3C26.2843 3 33 9.71573 33 18Z" stroke="#18181B" stroke-width="2" stroke-linecap="round" stroke-linejoin="round"/>
<path d="M42.24 25V10.8H48.32C50.1067 10.8 51.5067 11.2333 52.52 12.1C53.5467 12.9667 54.06 14.1533 54.06 15.66C54.06 16.6467 53.8267 17.5067 53.36 18.24C52.9067 18.96 52.2467 19.52 51.38 19.92C50.5267 20.3067 49.5067 20.5 48.32 20.5H46.16V25H42.24ZM46.16 17.36H48.02C48.6333 17.36 49.1267 17.22 49.5 16.94C49.8733 16.6467 50.06 16.22 50.06 15.66C50.06 15.1 49.8733 14.6733 49.5 14.38C49.14 14.0867 48.6467 13.94 48.02 13.94H46.16V17.36ZM58.8017 25.24C57.6684 25.24 56.7351 24.98 56.0017 24.46C55.2684 23.94 54.9017 23.2133 54.9017 22.28C54.9017 21.32 55.2151 20.5867 55.8417 20.08C56.4817 19.56 57.3884 19.1733 58.5617 18.92L61.8017 18.24C61.8017 17.68 61.6817 17.2533 61.4417 16.96C61.2017 16.6667 60.8684 16.52 60.4417 16.52C59.9884 16.52 59.6351 16.6333 59.3817 16.86C59.1417 17.0733 58.9884 17.3933 58.9217 17.82L55.0817 17.7C55.2951 16.3933 55.8617 15.4467 56.7817 14.86C57.7017 14.26 58.9217 13.96 60.4417 13.96C62.2017 13.96 63.5151 14.34 64.3817 15.1C65.2484 15.86 65.6817 17.0133 65.6817 18.56V21.72C65.6817 22.0667 65.7351 22.2933 65.8417 22.4C65.9617 22.5067 66.1217 22.56 66.3217 22.56H66.5417V25C66.4217 25.04 66.2284 25.0733 65.9617 25.1C65.6951 25.14 65.4351 25.16 65.1817 25.16C64.7951 25.16 64.3951 25.0933 63.9817 24.96C63.5684 24.8267 63.2217 24.5733 62.9417 24.2C62.6617 23.8133 62.5217 23.2533 62.5217 22.52L62.8017 22.84C62.6551 23.3333 62.4151 23.76 62.0817 24.12C61.7484 24.48 61.3084 24.76 60.7617 24.96C60.2284 25.1467 59.5751 25.24 58.8017 25.24ZM59.8817 22.8C60.2417 22.8 60.5617 22.7267 60.8417 22.58C61.1351 22.4333 61.3684 22.2133 61.5417 21.92C61.7151 21.6133 61.8017 21.2267 61.8017 20.76V20.4L60.0417 20.84C59.7084 20.92 59.4284 21.0533 59.2017 21.24C58.9884 21.4133 58.8817 21.64 58.8817 21.92C58.8817 22.2 58.9617 22.42 59.1217 22.58C59.2817 22.7267 59.5351 22.8 59.8817 22.8ZM70.9273 25C69.8873 25 69.0807 24.74 68.5073 24.22C67.934 23.7 67.6473 22.8533 67.6473 21.68V10.8H71.5273V21.24C71.5273 21.6133 71.614 21.88 71.7873 22.04C71.9607 22.1867 72.2073 22.26 72.5273 22.26H73.1073V25H70.9273ZM79.6284 25.24C78.4551 25.24 77.4284 25.0067 76.5484 24.54C75.6818 24.0733 75.0018 23.42 74.5084 22.58C74.0284 21.7267 73.7884 20.7333 73.7884 19.6C73.7884 18.4667 74.0284 17.48 74.5084 16.64C75.0018 15.8 75.6818 15.1467 76.5484 14.68C77.4284 14.2 78.4551 13.96 79.6284 13.96C80.8018 13.96 81.8218 14.2 82.6884 14.68C83.5684 15.1467 84.2484 15.8 84.7284 16.64C85.2218 17.48 85.4684 18.4667 85.4684 19.6C85.4684 20.7333 85.2218 21.7267 84.7284 22.58C84.2484 23.42 83.5684 24.0733 82.6884 24.54C81.8218 25.0067 80.8018 25.24 79.6284 25.24ZM79.6284 22.46C80.2284 22.46 80.6884 22.2133 81.0084 21.72C81.3284 21.2267 81.4884 20.52 81.4884 19.6C81.4884 18.6933 81.3284 17.9933 81.0084 17.5C80.6884 16.9933 80.2284 16.74 79.6284 16.74C79.0284 16.74 78.5684 16.9933 78.2484 17.5C77.9284 17.9933 77.7684 18.6933 77.7684 19.6C77.7684 20.52 77.9284 21.2267 78.2484 21.72C78.5684 22.2133 79.0284 22.46 79.6284 22.46ZM87.0419 25V14.2H90.5219L90.6419 16.72L90.3619 16.56C90.5085 16 90.7285 15.5267 91.0219 15.14C91.3285 14.7533 91.6885 14.46 92.1019 14.26C92.5285 14.06 92.9885 13.96 93.4819 13.96C94.3619 13.96 95.0685 14.2267 95.6019 14.76C96.1352 15.28 96.4819 15.9733 96.6419 16.84L96.2419 16.88C96.3752 16.24 96.5952 15.7067 96.9019 15.28C97.2085 14.84 97.5752 14.5133 98.0019 14.3C98.4419 14.0733 98.9219 13.96 99.4419 13.96C100.162 13.96 100.795 14.1133 101.342 14.42C101.889 14.7267 102.315 15.1867 102.622 15.8C102.942 16.4 103.102 17.1533 103.102 18.06V25H99.2219V19.2C99.2219 18.44 99.1285 17.8733 98.9419 17.5C98.7685 17.1267 98.4552 16.94 98.0019 16.94C97.7219 16.94 97.4885 17.0267 97.3019 17.2C97.1285 17.3733 96.9952 17.6333 96.9019 17.98C96.8085 18.3133 96.7619 18.72 96.7619 19.2V25H93.3619V19.2C93.3619 18.44 93.2752 17.8733 93.1019 17.5C92.9285 17.1267 92.6152 16.94 92.1619 16.94C91.8819 16.94 91.6485 17.0267 91.4619 17.2C91.2885 17.3733 91.1552 17.6333 91.0619 17.98C90.9685 18.3133 90.9219 18.72 90.9219 19.2V25H87.0419ZM105.186 25V14.2H109.066V25H105.186ZM105.126 13.12V10.4H109.126V13.12H105.126ZM111.397 25V14.2H114.877L115.037 17.64L114.557 17.6C114.637 16.68 114.837 15.96 115.157 15.44C115.491 14.9067 115.904 14.5267 116.397 14.3C116.904 14.0733 117.464 13.96 118.077 13.96C118.824 13.96 119.471 14.12 120.017 14.44C120.577 14.76 121.011 15.2267 121.317 15.84C121.624 16.44 121.777 17.18 121.777 18.06V25H117.897V19.4C117.897 18.88 117.864 18.44 117.797 18.08C117.744 17.7067 117.624 17.4267 117.437 17.24C117.264 17.04 117.004 16.94 116.657 16.94C116.164 16.94 115.811 17.1533 115.597 17.58C115.384 18.0067 115.277 18.6133 115.277 19.4V25H111.397ZM129.101 25.24C127.928 25.24 126.901 25.0067 126.021 24.54C125.154 24.0733 124.474 23.42 123.981 22.58C123.501 21.7267 123.261 20.7333 123.261 19.6C123.261 18.4667 123.501 17.48 123.981 16.64C124.474 15.8 125.154 15.1467 126.021 14.68C126.901 14.2 127.928 13.96 129.101 13.96C130.274 13.96 131.294 14.2 132.161 14.68C133.041 15.1467 133.721 15.8 134.201 16.64C134.694 17.48 134.941 18.4667 134.941 19.6C134.941 20.7333 134.694 21.7267 134.201 22.58C133.721 23.42 133.041 24.0733 132.161 24.54C131.294 25.0067 130.274 25.24 129.101 25.24ZM129.101 22.46C129.701 22.46 130.161 22.2133 130.481 21.72C130.801 21.2267 130.961 20.52 130.961 19.6C130.961 18.6933 130.801 17.9933 130.481 17.5C130.161 16.9933 129.701 16.74 129.101 16.74C128.501 16.74 128.041 16.9933 127.721 17.5C127.401 17.9933 127.241 18.6933 127.241 19.6C127.241 20.52 127.401 21.2267 127.721 21.72C128.041 22.2133 128.501 22.46 129.101 22.46ZM141.107 25V10.8H145.027V25H141.107ZM147.491 25V14.2H150.971L151.131 17.64L150.651 17.6C150.731 16.68 150.931 15.96 151.251 15.44C151.584 14.9067 151.998 14.5267 152.491 14.3C152.998 14.0733 153.558 13.96 154.171 13.96C154.918 13.96 155.564 14.12 156.111 14.44C156.671 14.76 157.104 15.2267 157.411 15.84C157.718 16.44 157.871 17.18 157.871 18.06V25H153.991V19.4C153.991 18.88 153.958 18.44 153.891 18.08C153.838 17.7067 153.718 17.4267 153.531 17.24C153.358 17.04 153.098 16.94 152.751 16.94C152.258 16.94 151.904 17.1533 151.691 17.58C151.478 18.0067 151.371 18.6133 151.371 19.4V25H147.491ZM163.695 25.24C162.802 25.24 162.028 25.0133 161.375 24.56C160.735 24.0933 160.235 23.44 159.875 22.6C159.528 21.7467 159.355 20.7467 159.355 19.6C159.355 18.4533 159.535 17.46 159.895 16.62C160.255 15.7667 160.762 15.1133 161.415 14.66C162.068 14.1933 162.828 13.96 163.695 13.96C164.495 13.96 165.162 14.12 165.695 14.44C166.228 14.76 166.635 15.2 166.915 15.76V10.8H170.795V25H167.015L166.955 23.44C166.662 24.0133 166.228 24.46 165.655 24.78C165.095 25.0867 164.442 25.24 163.695 25.24ZM165.115 22.46C165.502 22.46 165.828 22.36 166.095 22.16C166.362 21.96 166.562 21.6533 166.695 21.24C166.842 20.8133 166.915 20.2667 166.915 19.6C166.915 18.9333 166.842 18.3933 166.695 17.98C166.562 17.5533 166.362 17.24 166.095 17.04C165.828 16.84 165.502 16.74 165.115 16.74C164.568 16.74 164.135 17 163.815 17.52C163.495 18.0267 163.335 18.72 163.335 19.6C163.335 20.4533 163.495 21.1467 163.815 21.68C164.148 22.2 164.582 22.46 165.115 22.46ZM176.285 25.24C175.152 25.24 174.272 24.8867 173.645 24.18C173.032 23.46 172.725 22.4533 172.725 21.16V14.2H176.605V20.28C176.605 20.9733 176.699 21.48 176.885 21.8C177.072 22.1067 177.365 22.26 177.765 22.26C178.232 22.26 178.585 22.0933 178.825 21.76C179.065 21.4133 179.185 20.8533 179.185 20.08V14.2H183.065V25H179.585L179.445 21.6L179.885 21.64C179.779 22.8533 179.425 23.76 178.825 24.36C178.225 24.9467 177.379 25.24 176.285 25.24ZM190.168 25.24C188.955 25.24 187.948 25.0867 187.148 24.78C186.348 24.46 185.742 24.0267 185.328 23.48C184.915 22.9333 184.682 22.3067 184.628 21.6L188.528 21.5C188.608 21.9267 188.782 22.2467 189.048 22.46C189.315 22.66 189.695 22.76 190.188 22.76C190.602 22.76 190.908 22.6933 191.108 22.56C191.322 22.4267 191.428 22.2333 191.428 21.98C191.428 21.7933 191.382 21.64 191.288 21.52C191.195 21.3867 191.015 21.2733 190.748 21.18C190.495 21.0867 190.115 21 189.608 20.92C188.395 20.72 187.442 20.4867 186.748 20.22C186.068 19.9533 185.588 19.6067 185.308 19.18C185.028 18.74 184.888 18.1867 184.888 17.52C184.888 16.44 185.322 15.58 186.188 14.94C187.055 14.2867 188.382 13.96 190.168 13.96C191.275 13.96 192.202 14.12 192.948 14.44C193.695 14.76 194.268 15.2133 194.668 15.8C195.082 16.3733 195.328 17.0533 195.408 17.84L191.568 17.96C191.542 17.6267 191.462 17.3467 191.328 17.12C191.208 16.8933 191.048 16.7267 190.848 16.62C190.648 16.5 190.408 16.44 190.128 16.44C189.755 16.44 189.448 16.5267 189.208 16.7C188.982 16.86 188.868 17.0933 188.868 17.4C188.868 17.6 188.915 17.7667 189.008 17.9C189.115 18.0333 189.288 18.14 189.528 18.22C189.768 18.3 190.088 18.3667 190.488 18.42C191.675 18.5667 192.628 18.7867 193.348 19.08C194.068 19.3733 194.588 19.7533 194.908 20.22C195.242 20.6733 195.408 21.2267 195.408 21.88C195.408 22.6 195.202 23.2133 194.788 23.72C194.375 24.2133 193.775 24.5933 192.988 24.86C192.215 25.1133 191.275 25.24 190.168 25.24ZM196.679 25V21.4H200.599V25H196.679Z" fill="#18181B"/>
</svg>
